ply
format ascii 1.0
comment Created by Blender 3.0.1 - www.blender.org
element vertex 298
property float x
property float y
property float z
element face 600
property list uchar uint vertex_indices
end_header
-20.980700 -189.654007 28.284193
-15.805700 -185.962006 19.999992
-19.040001 -188.268997 8.217431
-12.552400 -183.641998 10.352693
-11.442800 -182.850006 -0.000077
-27.725100 -194.464005 34.640991
-12.552400 -183.641998 -10.352708
-21.622299 -190.110992 15.875092
-18.159300 -187.641006 -0.000210
-69.855400 -224.516006 -0.000056
-72.209297 -226.195007 -19.999910
-68.974701 -223.888000 8.218130
-75.462303 -228.514999 -10.352509
-76.571701 -229.307007 -0.000651
-75.462196 -228.514999 10.353190
-19.040100 -188.268997 -8.217488
-21.622299 -190.110992 -15.875009
-15.805700 -185.962006 -20.000107
-4.508650 -244.772995 2.719239
-6.366170 -246.218994 6.803949
-35.579102 -200.067001 38.636993
-10.456200 -249.104004 9.752250
-12.172600 -250.710007 9.848069
-44.007599 -206.078003 40.000191
-14.149000 -251.770004 9.754148
-52.436001 -212.089996 38.637093
-16.403601 -253.388000 8.660459
-60.290100 -217.692993 34.640694
-67.034500 -222.503006 28.284491
-72.209198 -226.195007 19.999691
-19.115601 -255.662003 4.924369
-20.176600 -256.037994 -2.858851
-19.116100 -255.662994 -4.922891
-18.309700 -254.737000 -6.804251
-67.034599 -222.503006 -28.284109
-60.289799 -217.692993 -34.641006
-52.436001 -212.089996 -38.637207
-14.248600 -251.809998 -9.752332
-12.172000 -250.710007 -9.848081
-44.007401 -206.078003 -40.000107
-10.526200 -249.186005 -9.754141
-35.578999 -200.067001 -38.636909
-27.725201 -194.464005 -34.641109
-4.532100 -244.908005 -2.852591
-4.191560 -244.677994 -0.000096
-5.229050 -245.757004 4.924099
-8.262220 -247.582001 8.660170
-18.326000 -254.750000 6.801999
-20.110600 -256.027008 2.965079
-20.980700 -189.654007 -28.284208
-5.229090 -245.757004 -4.924171
-20.473301 -256.291992 -0.000054
-16.403601 -253.388000 -8.660292
-8.262360 -247.582001 -8.660271
-6.229230 -246.175995 -6.660271
-25.730101 -193.041000 22.450693
-31.083401 -196.860001 27.496290
-37.317600 -201.307007 30.668190
-44.007599 -206.078003 31.750290
-50.697800 -210.850006 30.667791
-56.931599 -215.296997 27.496391
-62.284599 -219.115997 22.450491
-66.392097 -222.046005 15.875390
-68.974503 -223.888000 -8.217409
-66.392197 -222.046005 -15.875110
-62.285099 -219.115997 -22.450310
-56.931999 -215.296997 -27.496109
-50.697102 -210.850006 -30.668110
-44.007801 -206.078003 -31.750309
-37.317501 -201.307007 -30.668110
-31.083401 -196.860001 -27.496309
-25.730101 -193.041000 -22.450708
-12.177000 -238.649002 -0.000173
-13.846100 -239.839005 4.949749
-18.678699 -243.311996 6.969250
-20.725500 -244.746002 6.062089
-23.380600 -246.639999 1.812319
-23.587799 -246.791000 -0.638940
-22.448999 -246.009995 -4.219921
-20.115400 -244.345001 -6.473270
-17.875799 -242.714005 -6.999771
-12.530500 -238.917007 2.586679
-15.583000 -241.093994 6.465179
-22.360600 -245.929001 4.385299
-15.762400 -241.222000 -6.556440
-13.846200 -239.839005 -4.949861
-12.604900 -238.970001 -2.807180
14.318800 -271.666992 3.420498
10.739500 -274.220001 8.660268
8.082220 -276.114990 9.848067
0.432309 -281.571991 6.427788
-0.981523 -282.580994 3.419847
-1.472410 -282.931000 -0.000007
-0.981480 -282.580994 -3.420202
2.598330 -280.027008 -8.660353
5.255070 -278.131989 -9.848092
12.905100 -272.674988 -6.428122
14.318900 -271.666992 -3.420312
6.270960 -259.325012 0.610562
12.905300 -272.674988 6.427918
5.255010 -278.131989 9.848067
2.598270 -280.027008 8.660268
0.432225 -281.571991 -6.427892
8.082180 -276.114990 -9.848083
10.739300 -274.220001 -8.660262
8.149290 -262.703003 -2.385231
6.554250 -260.342010 -1.974651
9.269410 -263.546997 -0.026634
14.809900 -271.316986 -0.000010
12.766700 -260.993011 1.043179
12.125800 -260.035004 -2.306011
7.958550 -262.493011 2.573729
10.564800 -258.377014 2.632869
9.662790 -257.299988 -1.506341
16.739700 -245.927994 2.003659
102.666000 -147.082001 -1.986456
16.692499 -245.988998 -1.999291
104.985001 -150.501999 -2.000037
20.890100 -247.255997 -1.999951
104.935997 -150.567993 2.000843
21.130301 -246.968994 2.001099
15.740400 -261.958008 -0.576501
14.777400 -260.050995 -5.131961
12.510200 -258.131012 -5.504091
18.581100 -261.714996 1.801019
14.481200 -258.950989 6.153668
10.755100 -256.213989 4.846619
8.837820 -255.061005 0.555939
9.373210 -254.044998 -3.611951
19.623600 -260.927002 -3.362272
17.954100 -259.378998 6.130049
14.678600 -254.203003 7.872409
10.579200 -252.634003 5.099969
9.362990 -251.009003 1.407739
12.497500 -253.787003 -6.936771
17.320000 -256.140991 -8.022991
21.846600 -258.515015 -4.584221
23.322901 -259.005005 0.137995
21.210199 -259.237000 4.348339
19.068199 -253.972000 7.910069
12.897300 -249.643997 5.718179
11.502700 -247.964005 -1.894811
12.622100 -249.701004 -5.580931
21.243299 -254.158997 -6.965061
24.757700 -255.695999 1.740589
22.806900 -254.516998 5.805939
16.775600 -249.203003 6.823499
12.735300 -246.707001 0.777919
16.896400 -251.003998 -7.721291
24.253201 -255.580002 -3.004681
16.060801 -247.376999 -4.826161
19.523500 -248.259003 -5.418851
22.802099 -250.796005 -4.770381
24.528999 -252.218002 -2.000121
21.626600 -249.975998 5.467019
24.618401 -252.112000 1.998479
22.548300 -248.401001 -2.000201
22.632099 -248.302002 1.994829
110.777000 -152.996994 1.997703
106.625999 -151.690994 -1.999967
106.556999 -151.757996 1.999223
110.755997 -153.022995 -2.001097
103.023003 -146.677994 1.999944
33.960499 -36.931599 1.998788
105.482002 -139.074997 1.998064
33.847198 -36.770500 -2.000012
103.114998 -142.667999 2.000524
29.744600 -37.883701 -2.000942
103.106003 -142.654007 -2.000156
105.565002 -139.194000 -2.000096
113.790001 -152.272995 2.670713
115.226997 -151.423004 -2.626667
108.625000 -151.602997 4.418193
112.013000 -150.804001 -5.799397
117.890999 -149.046997 0.289006
113.709000 -149.278000 6.449513
107.996002 -150.968994 -4.947747
109.281998 -148.589005 7.199604
116.212997 -147.369003 -5.511357
117.981003 -146.369995 3.510314
105.094002 -148.356003 5.117383
105.366997 -148.311005 -5.423407
110.551003 -147.574005 -7.817817
118.598999 -144.160995 -1.951786
113.139000 -145.238007 7.835824
115.877998 -144.503998 -6.320426
116.968002 -143.365997 4.868774
109.233002 -143.940002 8.017273
105.828003 -144.667999 6.588864
103.832001 -144.817001 -4.697106
108.010002 -143.330002 -7.602246
112.406998 -142.897003 -7.759086
117.867996 -141.274002 0.959346
103.899002 -142.751007 4.304504
114.749001 -140.026001 -5.073576
113.556999 -140.279007 6.139294
115.144997 -138.272003 -1.697226
108.829002 -138.975998 5.332964
105.634003 -140.417999 -4.438476
109.978996 -139.154999 -5.641086
114.587997 -138.248001 2.129154
111.558998 -137.285995 1.986644
107.166000 -138.003998 1.998624
107.165001 -137.977997 -1.989416
111.397003 -137.069000 -1.994126
37.811401 -31.968901 2.016889
35.508701 -35.541401 -1.975982
35.536900 -35.663601 2.003538
29.862000 -38.054798 2.007078
37.662800 -31.761700 -1.995101
50.000000 -0.000016 0.000000
38.302200 -0.000016 32.139400
46.984600 -0.000016 17.101000
25.000000 -0.000015 43.301300
46.984600 -0.000021 -17.101000
38.302200 -0.000018 -32.139400
8.682420 -0.000020 49.240398
25.000000 -0.000008 -43.301300
-8.682410 -0.000017 49.240398
-25.000000 -0.000016 43.301300
-38.302200 -0.000014 32.139400
-46.984600 -0.000016 17.101000
-50.000000 -0.000023 -0.000009
-46.984600 -0.000010 -17.101000
-38.302200 -0.000018 -32.139400
-25.000000 -0.000015 -43.301300
-8.682400 -0.000012 -49.240398
8.682420 -0.000006 -49.240398
-8.682410 -7.500012 49.240398
-46.984600 -7.500009 -17.101000
-38.302200 -7.500019 -32.139400
38.302200 -7.500019 -32.139400
-8.682390 -7.500018 -49.240398
8.682430 -7.500018 -49.240398
25.000000 -7.500012 43.301300
8.682400 -7.500022 49.240398
-25.000000 -7.500012 43.301300
25.000000 -7.500018 -43.301300
-46.984600 -7.500011 17.101000
-50.000000 -7.500020 -0.000009
46.984600 -7.500011 17.101000
50.000000 -7.500010 -0.000000
38.302200 -7.500011 32.139400
-38.302200 -7.500011 32.139400
-25.000000 -7.500018 -43.301300
46.984600 -7.500019 -17.101000
39.133598 -7.500210 1.118590
21.406000 -7.500020 3.246440
28.769699 -7.500091 9.118190
24.375799 -7.501931 7.280910
37.281300 -7.500141 5.624640
33.493599 -7.500101 8.511730
35.624298 -7.501200 -7.281110
32.361698 -7.500020 -8.814080
28.828600 -7.503160 -9.124840
38.594200 -7.500920 -3.245380
26.401400 -22.869301 1.257939
33.598598 -22.869301 -1.257941
33.347301 -22.879299 1.854229
31.055700 -22.879299 3.678039
28.145700 -22.879299 3.347269
21.576099 -7.501030 -1.117640
22.718901 -7.501200 -5.624381
26.652700 -22.879299 -1.854231
28.944300 -22.879299 -3.678041
25.437500 -7.500010 -7.902501
31.854300 -22.879299 -3.347271
32.620899 -35.990299 5.189788
24.894100 -36.029301 2.255218
26.741400 -37.457298 -0.472777
26.304199 -35.664600 -4.630311
30.084700 -35.641499 -5.880631
33.791801 -35.169399 -5.195941
27.137300 -34.586201 6.101829
22.568199 -33.086800 -2.123111
24.432400 -32.319199 5.625749
28.553499 -31.404301 7.928739
22.035200 -31.035900 1.724899
24.516199 -32.351200 -5.523381
29.125299 -32.166302 -7.870691
34.519699 -31.706200 -6.831141
33.673401 -32.403198 6.940119
22.967100 -28.441601 3.782039
23.112900 -28.243000 -3.925711
26.131901 -29.183701 -7.213441
37.382500 -28.600300 -3.238721
37.998901 -29.213900 0.780464
33.868198 -29.183701 7.213398
28.587400 -26.244499 7.236279
25.597300 -26.264200 5.849539
22.862400 -25.895599 -1.269321
30.896299 -26.369400 -7.382671
34.345001 -26.038900 -5.797401
36.487801 -26.053200 3.265179
26.406099 -25.382601 -5.740971
36.514000 -25.271299 -1.503921
32.909801 -25.380699 6.117429
23.967100 -24.855801 1.899039
3 0 1 2
3 3 4 1
3 2 1 4
3 5 0 2
3 4 6 2
3 7 5 2
3 8 2 6
3 9 10 11
3 10 12 11
3 13 11 12
3 14 11 13
3 15 6 16
3 17 16 6
3 4 3 18
3 3 1 18
3 1 0 19
3 0 5 19
3 5 20 21
3 20 22 21
3 20 23 22
3 23 24 22
3 23 25 24
3 25 26 24
3 25 27 26
3 27 28 26
3 28 29 30
3 29 14 30
3 13 12 31
3 12 32 31
3 12 10 32
3 10 33 32
3 10 34 33
3 34 35 33
3 35 36 37
3 36 38 37
3 36 39 38
3 39 40 38
3 39 41 40
3 41 42 40
3 17 6 43
3 6 4 43
3 4 18 44
3 18 1 45
3 1 19 45
3 19 5 46
3 5 21 46
3 26 28 47
3 28 30 47
3 30 14 48
3 14 13 48
3 49 17 50
3 17 43 50
3 43 4 44
3 48 13 51
3 13 31 51
3 33 35 52
3 35 37 52
3 40 42 53
3 42 54 53
3 42 49 54
3 49 50 54
3 6 15 8
3 20 5 7
3 55 20 7
3 23 20 55
3 56 23 55
3 25 23 56
3 57 25 56
3 27 25 57
3 58 27 57
3 28 27 58
3 59 28 58
3 29 28 59
3 60 29 59
3 14 29 60
3 61 14 60
3 62 14 61
3 14 62 11
3 34 10 9
3 63 34 9
3 35 34 63
3 64 35 63
3 36 35 64
3 65 36 64
3 39 36 65
3 66 39 65
3 41 39 66
3 67 41 66
3 42 41 67
3 68 42 67
3 49 42 68
3 69 49 68
3 17 49 69
3 70 17 69
3 71 17 70
3 17 71 16
3 8 72 2
3 7 73 55
3 55 73 56
3 58 74 59
3 59 74 75
3 59 75 60
3 60 75 61
3 62 76 11
3 11 76 77
3 11 77 9
3 9 77 63
3 63 78 64
3 64 78 65
3 65 78 79
3 65 79 66
3 66 79 67
3 67 79 80
3 67 80 68
3 68 80 69
3 15 72 8
3 72 81 2
3 2 81 7
3 7 81 73
3 73 82 56
3 56 82 57
3 57 82 74
3 57 74 58
3 75 83 61
3 61 83 62
3 62 83 76
3 63 77 78
3 80 84 69
3 69 84 70
3 70 84 85
3 70 85 71
3 71 85 86
3 71 86 16
3 16 86 15
3 15 86 72
3 77 81 72
3 77 72 86
3 77 73 81
3 77 82 73
3 77 86 85
3 77 85 84
3 77 74 82
3 77 84 80
3 77 80 79
3 77 75 74
3 77 83 75
3 77 76 83
3 77 79 78
3 45 19 18
3 22 24 21
3 30 48 47
3 32 33 31
3 38 40 37
3 50 43 54
3 18 19 87
3 19 46 88
3 46 89 88
3 46 21 89
3 21 24 89
3 26 47 90
3 47 91 90
3 47 48 91
3 48 92 91
3 48 51 92
3 51 93 92
3 51 31 93
3 31 33 93
3 33 52 94
3 52 95 94
3 52 37 95
3 37 40 95
3 53 54 96
3 54 97 96
3 54 43 97
3 43 98 97
3 43 44 98
3 87 19 99
3 19 88 99
3 89 24 100
3 24 101 100
3 24 26 101
3 26 90 101
3 93 33 102
3 33 94 102
3 95 40 103
3 40 104 103
3 40 53 104
3 53 96 104
3 105 97 106
3 107 87 108
3 97 107 108
3 92 108 87
3 92 97 108
3 92 87 99
3 92 96 97
3 92 99 88
3 92 104 96
3 92 88 89
3 92 103 104
3 92 89 100
3 92 100 101
3 92 101 90
3 92 90 91
3 92 93 102
3 92 102 94
3 92 94 95
3 92 95 103
3 107 97 105
3 106 97 98
3 109 107 110
3 98 111 112
3 112 113 98
3 106 98 113
3 109 111 107
3 111 109 112
3 105 110 107
3 113 110 105
3 105 106 113
3 114 115 116
3 116 117 118
3 118 119 120
3 109 110 121
3 110 122 121
3 113 123 110
3 110 123 122
3 121 124 109
3 109 124 125
3 109 125 112
3 125 126 112
3 112 126 127
3 112 127 113
3 113 127 128
3 113 128 123
3 122 129 121
3 121 129 124
3 124 130 125
3 125 131 126
3 126 131 132
3 126 132 127
3 127 132 133
3 127 133 128
3 128 134 123
3 123 134 135
3 123 135 122
3 122 135 129
3 129 135 136
3 129 137 124
3 124 137 138
3 124 138 130
3 129 136 137
3 130 139 125
3 125 139 131
3 131 140 132
3 133 141 128
3 128 141 142
3 128 142 134
3 135 143 136
3 137 144 138
3 138 144 145
3 138 145 130
3 130 145 139
3 131 139 146
3 131 146 140
3 132 140 147
3 132 147 133
3 133 147 141
3 142 148 134
3 134 148 135
3 135 148 143
3 136 143 149
3 136 149 137
3 149 144 137
3 140 146 114
3 140 114 147
3 141 150 142
3 142 150 148
3 148 150 151
3 148 151 143
3 143 151 152
3 143 152 149
3 149 152 153
3 149 153 144
3 139 145 154
3 139 154 146
3 141 147 150
3 153 155 144
3 144 155 145
3 145 155 154
3 154 120 146
3 146 120 114
3 116 147 114
3 147 116 150
3 150 116 151
3 152 156 153
3 151 156 152
3 155 157 154
3 154 157 120
3 116 118 151
3 118 156 151
3 156 118 157
3 118 120 157
3 153 158 155
3 156 159 153
3 155 160 157
3 153 161 158
3 160 155 158
3 161 153 159
3 157 160 156
3 159 156 160
3 120 119 114
3 162 114 119
3 118 117 119
3 116 115 117
3 115 114 162
3 163 164 165
3 166 167 168
3 164 163 166
3 168 165 169
3 170 161 171
3 158 161 170
3 170 172 158
3 161 173 171
3 171 174 170
3 170 175 172
3 160 158 172
3 159 176 161
3 161 176 173
3 170 174 175
3 175 177 172
3 172 119 160
3 159 117 176
3 173 178 171
3 171 178 174
3 174 179 175
3 177 180 172
3 172 180 119
3 117 181 176
3 176 181 182
3 176 182 173
3 173 182 178
3 178 183 174
3 174 183 179
3 175 184 177
3 182 185 178
3 178 185 183
3 179 186 184
3 179 184 175
3 184 187 177
3 177 187 188
3 177 188 180
3 115 189 117
3 181 117 189
3 181 190 182
3 182 190 191
3 182 191 185
3 183 192 179
3 179 192 186
3 188 193 180
3 193 115 162
3 181 189 190
3 185 191 194
3 185 194 183
3 186 195 184
3 184 195 187
3 193 166 115
3 194 196 183
3 183 196 192
3 192 195 186
3 187 197 188
3 188 197 193
3 168 115 166
3 189 168 198
3 189 198 190
3 190 199 191
3 191 199 194
3 196 200 192
3 192 200 195
3 195 197 187
3 190 198 199
3 193 197 164
3 193 164 166
3 169 198 168
3 194 199 196
3 200 196 201
3 200 201 197
3 200 197 195
3 197 202 164
3 164 203 169
3 169 203 198
3 198 203 199
3 199 203 204
3 199 204 196
3 196 204 201
3 202 203 164
3 201 202 197
3 189 115 168
3 205 201 204
3 202 206 203
3 203 206 204
3 201 207 202
3 180 162 119
3 193 162 180
3 160 119 117
3 117 159 160
3 167 166 208
3 165 168 167
3 208 166 163
3 169 165 164
3 202 207 206
3 209 204 206
3 201 205 207
3 205 204 209
3 210 211 212
3 210 213 211
3 210 214 215
3 210 216 213
3 210 215 217
3 210 218 216
3 210 219 218
3 210 220 219
3 210 221 220
3 210 222 221
3 210 223 222
3 210 224 223
3 210 225 224
3 210 226 225
3 210 227 226
3 210 217 227
3 216 218 228
3 218 219 228
3 222 223 229
3 223 230 229
3 223 224 230
3 224 225 230
3 217 215 231
3 215 214 231
3 225 226 232
3 226 233 232
3 226 227 233
3 227 217 233
3 211 213 234
3 213 235 234
3 213 216 235
3 216 228 235
3 228 219 236
3 219 220 236
3 233 217 237
3 217 231 237
3 220 221 238
3 221 239 238
3 221 222 239
3 222 229 239
3 210 240 241
3 210 212 240
3 212 242 240
3 212 211 242
3 211 234 242
3 236 220 243
3 220 238 243
3 230 225 244
3 225 232 244
3 231 214 245
3 214 241 245
3 214 210 241
3 241 240 245
3 245 240 246
3 242 246 240
3 247 238 239
3 238 247 248
3 248 247 249
3 247 239 229
3 247 229 230
3 247 230 244
3 247 244 232
3 247 232 233
3 242 234 246
3 246 234 250
3 234 235 250
3 235 228 250
3 250 228 251
3 228 236 251
3 236 243 251
3 251 243 248
3 243 238 248
3 252 253 245
3 254 245 253
3 245 255 252
3 245 246 255
3 249 247 256
3 252 255 257
3 246 250 258
3 250 259 258
3 250 251 259
3 251 248 259
3 248 260 259
3 248 249 260
3 249 256 260
3 247 261 256
3 261 262 263
3 262 264 263
3 262 265 264
3 265 254 264
3 254 266 264
3 254 253 266
3 253 252 266
3 252 257 266
3 255 246 257
3 246 258 257
3 261 263 256
3 163 267 208
3 208 268 269
3 269 270 167
3 167 270 271
3 167 271 272
3 167 272 165
3 208 267 273
3 208 273 268
3 269 268 274
3 269 274 270
3 165 272 206
3 165 206 163
3 163 206 207
3 163 207 267
3 273 275 268
3 267 276 273
3 275 277 268
3 268 277 274
3 274 278 270
3 270 278 279
3 270 279 271
3 271 279 272
3 272 280 209
3 272 209 206
3 207 205 267
3 267 205 281
3 267 281 276
3 273 276 275
3 279 280 272
3 275 282 277
3 274 283 278
3 278 283 284
3 278 284 279
3 280 285 209
3 209 285 286
3 209 286 205
3 205 287 281
3 281 287 276
3 276 288 289
3 276 289 275
3 275 289 282
3 277 290 274
3 274 290 283
3 284 291 279
3 279 291 280
3 280 291 292
3 280 292 285
3 286 293 205
3 205 293 287
3 287 288 276
3 282 290 277
3 283 294 284
3 284 294 291
3 285 295 286
3 286 295 293
3 287 293 296
3 287 296 288
3 289 297 282
3 282 297 290
3 283 290 294
3 285 292 295
3 288 259 260
3 288 260 289
3 289 260 256
3 289 256 297
3 297 256 263
3 297 263 290
3 290 263 294
3 294 263 264
3 294 264 291
3 291 264 266
3 291 266 292
3 292 266 257
3 292 257 295
3 295 257 258
3 295 258 293
3 293 258 296
3 296 258 259
3 296 259 288
3 167 208 269
3 265 237 231
3 265 231 254
3 254 231 245
3 262 233 237
3 262 237 265
3 261 233 262
3 247 233 261
3 87 107 111
3 87 111 18
3 111 98 18
3 18 98 44
