ply
format ascii 1.0
comment Created by Blender 3.0.1 - www.blender.org
element vertex 599
property float x
property float y
property float z
element face 1056
property list uchar uint vertex_indices
end_header
336.782013 -269.687988 -0.009992
301.289001 -269.687988 -179.687012
295.398987 -293.835999 -177.192017
330.372986 -293.835999 -0.009993
302.234985 -301.885010 -180.086014
337.789001 -301.885010 -0.009993
316.152008 -293.835999 -186.014023
352.864990 -293.835999 -0.009993
331.471985 -269.687988 -192.521011
369.467010 -269.687988 -0.009992
203.998001 -269.687988 -325.053986
199.481003 -293.835999 -320.523010
204.729996 -301.885010 -325.772003
215.442001 -293.835999 -336.470001
227.222000 -269.687988 -348.266998
58.640400 -269.687958 -422.337006
56.137901 -293.835968 -416.449005
59.037201 -301.884979 -423.274994
64.957703 -293.835968 -437.187012
71.488503 -269.687958 -452.515991
-121.050003 -269.687958 -457.825012
-121.050003 -293.835968 -451.437988
-121.050003 -301.884979 -458.842987
-121.050003 -293.835968 -473.912994
-121.050003 -269.687958 -490.519012
-313.161011 -269.687958 -422.337006
-303.487000 -293.835968 -416.449005
-302.692993 -301.884979 -423.274994
-307.239990 -293.835968 -437.187012
-313.588013 -269.687958 -452.515991
-313.161011 -269.687958 -422.337006
-457.144989 -269.687988 -325.053986
-446.220001 -293.835999 -320.523010
-303.487000 -293.835968 -416.449005
-313.161011 -269.687958 -422.337006
-303.487000 -293.835968 -416.449005
-448.203003 -301.885010 -325.772003
-302.692993 -301.884979 -423.274994
-303.487000 -293.835968 -416.449005
-302.692993 -301.884979 -423.274994
-457.694000 -293.835999 -336.470001
-307.239990 -293.835968 -437.187012
-302.692993 -301.884979 -423.274994
-307.239990 -293.835968 -437.187012
-469.321991 -269.687988 -348.266998
-313.588013 -269.687958 -452.515991
-307.239990 -293.835968 -437.187012
-547.539001 -269.687988 -179.687012
-539.239014 -293.835999 -177.192017
-544.854004 -301.885010 -180.086014
-558.312012 -293.835999 -186.014023
-573.541016 -269.687988 -192.521011
-578.882019 -269.687988 -0.009992
-572.473022 -293.835999 -0.009993
-579.888977 -301.885010 -0.009993
-594.965027 -293.835999 -0.009993
-611.565979 -269.687988 -0.009992
-543.388977 -269.687988 179.686981
-537.499023 -293.835999 177.191986
-544.335022 -301.885010 180.085983
-558.221008 -293.835999 186.013992
-573.541016 -269.687988 192.520981
-446.097992 -269.687988 325.053986
-441.549988 -293.835999 320.523010
-446.829987 -301.885010 325.772003
-457.541992 -293.835999 336.470001
-469.321991 -269.687988 348.266998
-300.739990 -269.688019 422.337006
-298.238007 -293.836029 416.449005
-301.136993 -301.885040 423.274994
-307.057007 -293.836029 437.187012
-313.588013 -269.688019 452.515991
-121.050003 -269.688019 457.825012
-121.050003 -293.836029 451.437988
-121.050003 -301.885040 458.842987
-121.050003 -293.836029 473.912994
-121.050003 -269.688019 490.519012
58.640400 -269.688019 422.337006
56.137901 -293.836029 416.449005
59.037201 -301.885040 423.274994
64.957703 -293.836029 437.187012
71.488503 -269.688019 452.515991
203.998001 -269.687988 325.053986
199.481003 -293.835999 320.523010
204.729996 -301.885010 325.772003
215.442001 -293.835999 336.470001
227.222000 -269.687988 348.266998
301.289001 -269.687988 179.686981
295.398987 -293.835999 177.191986
302.234985 -301.885010 180.085983
316.152008 -293.835999 186.013992
331.471985 -269.687988 192.520981
386.830994 -141.308990 -216.093994
429.526001 -141.309006 -0.009986
435.171997 -15.241590 -236.651993
481.894989 -15.241600 -0.009981
269.855988 -141.308990 -390.901001
307.027008 -15.241581 -428.084991
333.333008 106.251022 -454.391998
469.321991 106.251007 -251.182999
343.312988 220.827011 -464.351990
482.291992 220.827011 -256.712006
95.048401 -141.308990 -507.884003
115.617996 -15.241576 -556.206970
130.143997 106.251022 -590.377991
135.667999 220.827026 -603.351990
-121.050003 -141.308975 -550.557983
-121.050003 -15.241573 -602.932007
-121.050003 106.251030 -639.978027
-121.050003 220.827026 -654.028992
-337.148010 -141.308990 -507.884003
-357.687012 -15.241576 -556.206970
-372.243988 106.251022 -590.377991
-377.768005 220.827026 -603.351990
-313.588013 -269.687958 -452.515991
-511.954987 -141.308990 -390.901001
-337.148010 -141.308990 -507.884003
-313.588013 -269.687958 -452.515991
-337.148010 -141.308990 -507.884003
-549.125977 -15.241581 -428.084991
-357.687012 -15.241576 -556.206970
-337.148010 -141.308990 -507.884003
-357.687012 -15.241576 -556.206970
-575.432983 106.251022 -454.391998
-372.243988 106.251022 -590.377991
-357.687012 -15.241576 -556.206970
-372.243988 106.251022 -590.377991
-585.411987 220.827011 -464.351990
-377.768005 220.827026 -603.351990
-372.243988 106.251022 -590.377991
-628.931030 -141.308990 -216.093994
-677.241028 -15.241590 -236.651993
-711.421021 106.251007 -251.182999
-724.392029 220.827011 -256.712006
-694.513977 -101.566002 -2.924094
-723.994995 -15.241600 -0.009981
-761.013000 106.250999 -0.009975
-765.103027 149.059998 -8.253324
-628.931030 -141.309021 216.093994
-677.241028 -15.241611 236.651993
-711.421021 106.250992 251.182999
-724.392029 220.826981 256.712006
-511.954987 -141.309021 390.901001
-549.125977 -15.241619 428.084991
-575.432983 106.250977 454.391998
-585.411987 220.826981 464.351990
-337.148010 -141.309021 507.884003
-357.687012 -15.241624 556.206970
-372.243988 106.250977 590.377991
-377.768005 220.826965 603.351990
-121.050003 -141.309036 550.557983
-121.050003 -15.241627 602.932007
-121.050003 106.250969 639.978027
-121.050003 220.826965 654.028992
95.048401 -141.309021 507.884003
115.617996 -15.241624 556.206970
130.143997 106.250977 590.377991
135.667999 220.826965 603.351990
269.855988 -141.309021 390.901001
307.027008 -15.241619 428.084991
333.333008 106.250977 454.391998
343.312988 220.826981 464.351990
386.830994 -141.309021 216.093994
435.171997 -15.241611 236.651993
469.321991 106.250992 251.182999
482.291992 220.826981 256.712006
507.438995 317.778992 -0.009966
458.731995 317.778992 -246.671982
406.881989 389.451996 -224.615982
451.225006 389.451996 -0.009963
355.032013 438.109009 -202.560989
395.010010 438.109009 -0.009961
331.471985 466.092010 -192.520981
369.467010 466.092010 -0.009960
325.184998 317.779022 -446.229004
285.266998 389.452026 -406.308960
245.350006 438.109039 -366.409973
227.222000 466.092010 -348.266968
125.627998 317.779022 -579.778992
103.563004 389.452026 -527.924011
81.498398 438.109039 -476.068970
71.488503 466.092041 -452.515961
-121.050003 317.779022 -628.481018
-121.050003 389.452026 -572.273987
-121.050003 438.109039 -516.067993
-121.050003 466.092041 -490.518982
-367.726990 317.779022 -579.778992
-345.662994 389.452026 -527.924011
-323.597992 438.109039 -476.068970
-313.588013 466.092041 -452.515961
-377.768005 220.827026 -603.351990
-567.254028 317.779022 -446.229004
-367.726990 317.779022 -579.778992
-377.768005 220.827026 -603.351990
-367.726990 317.779022 -579.778992
-527.367004 389.452026 -406.308960
-345.662994 389.452026 -527.924011
-367.726990 317.779022 -579.778992
-345.662994 389.452026 -527.924011
-487.449005 438.109039 -366.409973
-323.597992 438.109039 -476.068970
-345.662994 389.452026 -527.924011
-323.597992 438.109039 -476.068970
-469.321991 466.092010 -348.266968
-313.588013 466.092041 -452.515961
-323.597992 438.109039 -476.068970
-700.831970 317.778992 -246.671982
-648.981995 389.451996 -224.615982
-597.130981 438.109009 -202.560989
-573.541016 466.092010 -192.520981
-731.318970 347.915985 -0.009965
-693.323975 389.451996 -0.009963
-637.109985 438.109009 -0.009961
-611.565979 466.092010 -0.009960
-700.831970 317.778992 246.672012
-648.981995 389.451996 224.616013
-597.130981 438.109009 202.561020
-573.541016 466.092010 192.521011
-567.254028 317.778961 446.229004
-527.367004 389.451965 406.309021
-487.449005 438.108978 366.410034
-469.321991 466.092010 348.267029
-367.726990 317.778961 579.778992
-345.662994 389.451965 527.924011
-323.597992 438.108978 476.069031
-313.588013 466.091980 452.516022
-121.050003 317.778961 628.481018
-121.050003 389.451965 572.273987
-121.050003 438.108978 516.067993
-121.050003 466.091980 490.519043
125.627998 317.778961 579.778992
103.563004 389.451965 527.924011
81.498398 438.108978 476.069031
71.488503 466.091980 452.516022
325.184998 317.778961 446.229004
285.266998 389.451965 406.309021
245.350006 438.108978 366.410034
227.222000 466.092010 348.267029
458.731995 317.778992 246.672012
406.881989 389.451996 224.616013
355.032013 438.109009 202.561020
331.471985 466.092010 192.521011
321.217987 484.109009 -188.169983
358.358002 484.109009 -0.009959
266.407013 499.813995 -164.856979
298.970001 499.813995 -0.009958
130.998993 510.928986 -107.252975
152.177994 510.928986 -0.009958
219.317993 484.109009 -340.382965
177.173004 499.813995 -298.207977
72.953400 510.928986 -193.997986
67.124397 484.109039 -442.256958
43.808701 499.814026 -387.466980
-13.809400 510.928986 -252.060989
-121.050003 484.109039 -479.401978
-121.050003 499.814026 -420.001984
-121.050003 510.928986 -273.237976
-309.223999 484.109039 -442.256958
-285.907990 499.814026 -387.466980
-121.050003 499.814026 -420.001984
-285.907990 499.814026 -387.466980
-228.289993 510.928986 -252.060989
-121.050003 510.928986 -273.237976
-121.050003 499.814026 -420.001984
-313.588013 466.092041 -452.515961
-461.417999 484.109009 -340.382965
-309.223999 484.109039 -442.256958
-313.588013 466.092041 -452.515961
-309.223999 484.109039 -442.256958
-419.242004 499.813995 -298.207977
-285.907990 499.814026 -387.466980
-309.223999 484.109039 -442.256958
-285.907990 499.814026 -387.466980
-315.053009 510.928986 -193.997986
-285.907990 499.814026 -387.466980
-563.286987 484.109009 -188.169983
-508.506989 499.813995 -164.856979
-373.097992 510.928986 -107.252975
-600.458008 484.109009 -0.009959
-541.070007 499.813995 -0.009958
-394.278015 510.928986 -0.009958
-563.286987 484.109009 188.170013
-508.506989 499.813995 164.857010
-373.097992 510.928986 107.253021
-461.417999 484.109009 340.383026
-419.242004 499.813995 298.208038
-315.053009 510.928986 193.998016
-309.223999 484.108978 442.257019
-285.907990 499.813965 387.467041
-228.289993 510.928986 252.061020
-121.050003 484.108978 479.402039
-121.050003 499.813965 420.002045
-121.050003 510.928986 273.238037
67.124397 484.108978 442.257019
43.808701 499.813965 387.467041
-13.809400 510.928986 252.061020
219.317993 484.109009 340.383026
177.173004 499.813995 298.208038
72.953400 510.928986 193.998016
321.217987 484.109009 188.170013
266.407013 499.813995 164.857010
130.998993 510.928986 107.253021
-9.658960 -498.855011 -0.010002
-18.265100 -498.855011 -43.841522
-22.964800 -459.772003 -41.825520
-14.755500 -459.772003 -0.010000
-61.631199 -411.476990 -25.298918
-56.656700 -411.476990 -0.009998
-60.715599 -367.803986 -25.678116
-55.649700 -367.803986 -0.009996
-41.855499 -498.855011 -79.190125
-45.487099 -459.772003 -75.557426
-75.303299 -411.476990 -45.737617
-74.601402 -367.803986 -46.436214
-77.195396 -498.855011 -102.802025
-79.240097 -459.772003 -98.071922
-95.750397 -411.476990 -59.410019
-95.384102 -367.803986 -60.328217
-121.050003 -498.855011 -111.385025
-121.050003 -459.772003 -106.275024
-121.050003 -411.476990 -64.380013
-121.050003 -367.803986 -65.397919
-164.873993 -498.855011 -102.802025
-162.860001 -459.772003 -98.071922
-146.348999 -411.476990 -59.410019
-146.714996 -367.803986 -60.328217
-200.244003 -498.855011 -79.190125
-196.613007 -459.772003 -75.557426
-166.796005 -411.476990 -45.737617
-167.468002 -367.803986 -46.436214
-223.835007 -498.855011 -43.841522
-219.134995 -459.772003 -41.825520
-180.438004 -411.476990 -25.298918
-181.384003 -367.803986 -25.678116
-232.440994 -498.855011 -0.010002
-227.313995 -459.772003 -0.010000
-185.442993 -411.476990 -0.009998
-186.449997 -367.803986 -0.009996
-223.835007 -498.855011 43.841476
-219.134995 -459.772003 41.825481
-180.438004 -411.476990 25.298883
-181.384003 -367.803986 25.678085
-200.244003 -498.855011 79.190079
-196.613007 -459.772003 75.557381
-166.796005 -411.476990 45.737579
-167.468002 -367.803986 46.436184
-164.873993 -498.855011 102.801979
-162.860001 -459.772003 98.071877
-146.348999 -411.476990 59.409981
-146.714996 -367.803986 60.328186
-121.050003 -498.855011 111.384979
-121.050003 -459.772003 106.274979
-121.050003 -411.476990 64.379982
-121.050003 -367.803986 65.397888
-77.195396 -498.855011 102.801979
-79.240097 -459.772003 98.071877
-95.750397 -411.476990 59.409981
-95.384102 -367.803986 60.328186
-41.855499 -498.855011 79.190079
-45.487099 -459.772003 75.557381
-75.303299 -411.476990 45.737579
-74.601402 -367.803986 46.436184
-18.265100 -498.855011 43.841476
-22.964800 -459.772003 41.825481
-61.631199 -411.476990 25.298883
-60.715599 -367.803986 25.678085
-55.649700 -367.803986 -0.009996
-60.715599 -367.803986 -25.678116
16.586599 -338.671997 -58.551815
28.152901 -338.671997 -0.009995
-55.649700 -367.803986 -0.009996
127.824997 -318.738007 -105.896019
148.729996 -318.738007 -0.009994
227.770996 -298.819000 -148.410019
257.069000 -298.819000 -0.009993
271.138000 -269.687988 -166.853012
304.066986 -269.687988 -0.009992
-60.715599 -367.803986 -25.678116
-74.601402 -367.803986 -46.436214
-15.121700 -338.671997 -105.936012
-60.715599 -367.803986 -25.678116
70.511902 -318.738007 -191.543015
147.417007 -298.819000 -268.467987
180.774002 -269.687988 -301.839996
-62.485699 -338.671997 -137.632019
-62.485699 -338.671997 -137.632019
-74.601402 -367.803986 -46.436214
-62.485699 -338.671997 -137.632019
-15.152200 -318.738007 -248.887009
27.359400 -298.819000 -348.806000
45.822800 -269.687958 -392.178009
-121.050003 -338.671997 -149.209015
-121.050003 -318.738007 -269.785004
-121.050003 -318.738007 -269.785004
-62.485699 -338.671997 -137.632019
-121.050003 -318.738007 -269.785004
-121.050003 -298.818970 -378.105988
-121.050003 -269.687958 -425.110992
-179.613998 -338.671997 -137.632019
-226.947006 -318.738007 -248.887009
-269.459015 -298.819000 -348.806000
-121.050003 -298.818970 -378.105988
-121.050003 -298.818970 -378.105988
-287.891998 -269.687958 -392.178009
-287.891998 -269.687958 -392.178009
-226.977997 -338.671997 -105.936012
-312.580994 -318.738007 -191.543015
-389.516998 -298.819000 -268.467987
-422.872986 -269.687988 -301.839996
-258.686005 -338.671997 -58.551815
-369.924011 -318.738007 -105.896019
-469.841003 -298.819000 -148.410019
-513.206970 -269.687988 -166.853012
-270.252991 -338.671997 -0.009995
-390.829010 -318.738007 -0.009994
-499.167999 -298.819000 -0.009993
-546.166016 -269.687988 -0.009992
-258.686005 -338.671997 58.551785
-369.924011 -318.738007 105.895988
-469.841003 -298.819000 148.409988
-513.206970 -269.687988 166.852982
-226.977997 -338.671997 105.935982
-312.580994 -318.738007 191.542984
-389.516998 -298.819000 268.467987
-422.872986 -269.687988 301.839996
-179.613998 -338.671997 137.631989
-226.947006 -318.738007 248.886978
-269.459015 -298.819000 348.806000
-287.891998 -269.688019 392.178009
-121.050003 -338.671997 149.208984
-121.050003 -318.738007 269.785004
-121.050003 -298.819031 378.105988
-121.050003 -269.688019 425.110992
-62.485699 -338.671997 137.631989
-15.152200 -318.738007 248.886978
27.359400 -298.819000 348.806000
45.822800 -269.688019 392.178009
-15.121700 -338.671997 105.935982
70.511902 -318.738007 191.542984
147.417007 -298.819000 268.467987
180.774002 -269.687988 301.839996
16.586599 -338.671997 58.551785
127.824997 -318.738007 105.895988
227.770996 -298.819000 148.409988
271.138000 -269.687988 166.852982
-55.649700 -367.803986 -0.009996
-125.383003 509.403992 8.053752
-125.383003 509.403992 8.053752
-125.383003 509.403992 8.053752
-125.383003 509.403992 8.053752
-125.383003 509.403992 8.053752
-121.050003 510.928986 -273.237976
-120.713997 -515.142029 -1.966053
492.363007 26.089199 -0.009979
497.062988 66.083809 -121.404999
603.723022 44.372902 -109.628998
591.729980 13.119300 -0.009979
675.044006 -55.283398 -83.700996
659.692993 -73.488403 -0.009983
715.693970 -171.903000 -57.773308
696.986023 -178.490005 -0.009988
792.538025 -269.687988 -45.977112
761.898010 -269.687988 -0.009992
502.220001 184.039001 -161.862991
630.059998 113.137009 -146.154999
708.765991 -15.241595 -111.584999
756.770996 -157.408005 -77.034409
859.982971 -269.687988 -61.306210
494.773987 276.778015 -121.404984
656.396973 181.901001 -109.628990
742.489014 24.815804 -83.700996
797.879028 -142.912994 -57.773308
927.458984 -269.687988 -45.977112
518.333984 297.938995 -0.009967
668.390991 213.171005 -0.009971
757.809021 43.020901 -0.009978
816.556030 -136.326004 -0.009986
958.098999 -269.687988 -0.009992
492.821014 274.845001 121.405014
656.396973 181.901001 109.629005
742.489014 24.815796 83.700996
797.879028 -142.912994 57.773293
927.458984 -269.687988 45.977089
505.394012 149.139008 161.863007
630.059998 113.136993 146.154999
708.765991 -15.241605 111.584999
756.770996 -157.408005 77.034393
859.982971 -269.687988 61.306187
502.463989 70.658592 121.404999
603.723022 44.372894 109.628998
675.044006 -55.283405 83.700996
715.693970 -171.903000 57.773293
792.538025 -269.687988 45.977089
818.234985 -284.166992 -43.103012
785.396973 -283.490997 -0.009992
833.585022 -289.166992 -36.795712
802.762024 -288.082001 -0.009993
834.043030 -284.434998 -30.468513
807.888977 -283.490997 -0.009992
815.030029 -269.687988 -27.594311
794.583008 -269.687988 -0.009992
890.471008 -285.644989 -57.473911
901.395996 -291.540009 -49.050911
891.599976 -286.510010 -40.628010
859.982971 -269.687988 -36.795712
962.706970 -287.122986 -43.103012
969.177002 -293.914001 -36.795712
949.187988 -288.584991 -30.468513
904.966980 -269.687988 -27.594311
995.513977 -287.799011 -0.009993
1000.000000 -294.983002 -0.009993
975.341003 -289.528015 -0.009993
925.414001 -269.687988 -0.009992
962.706970 -287.122986 43.102989
969.177002 -293.914001 36.795689
949.187988 -288.584991 30.468487
904.966980 -269.687988 27.594288
890.471008 -285.644989 57.473888
901.395996 -291.540009 49.050888
891.599976 -286.510010 40.627987
859.982971 -269.687988 36.795689
818.234985 -284.166992 43.102989
833.585022 -289.166992 36.795689
834.043030 -284.434998 30.468487
815.030029 -269.687988 27.594288
-651.117981 -163.664993 -1.966037
-647.242004 -175.785995 -44.021107
-771.023010 -174.386993 -44.021107
-767.544006 -162.453995 -1.966037
-861.875000 -164.576996 -44.021107
-853.604980 -153.981003 -1.966037
-917.815002 -137.960999 -44.021107
-906.950989 -130.964996 -1.966036
-936.919006 -86.128197 -44.021103
-925.231018 -86.128197 -1.966034
-638.666016 -202.449005 -58.032806
-778.653015 -200.625000 -58.032806
-880.064026 -187.906998 -58.032806
-941.802002 -153.367004 -58.032806
-962.614990 -86.128197 -58.032803
-630.091003 -229.095993 -44.021111
-786.281982 -226.863998 -44.021111
-898.283020 -211.220993 -44.021107
-965.758972 -168.789993 -44.021107
-988.312012 -86.128197 -44.021103
-626.215027 -241.216995 -1.966040
-789.731018 -238.796005 -1.966040
-906.554016 -221.832993 -1.966040
-976.622986 -175.785995 -1.966038
-1000.000000 -86.128197 -1.966034
-630.091003 -229.095993 40.088989
-786.281982 -226.863998 40.088989
-898.283020 -211.220993 40.088993
-965.758972 -168.789993 40.088993
-988.312012 -86.128197 40.088997
-638.666016 -202.449005 54.100693
-778.653015 -200.625000 54.100693
-880.064026 -187.906998 54.100693
-941.802002 -153.367004 54.100693
-962.614990 -86.128197 54.100697
-647.242004 -175.785995 40.088993
-771.023010 -174.386993 40.088993
-861.875000 -164.576996 40.088993
-917.815002 -137.960999 40.088993
-936.919006 -86.128197 40.088997
-926.116028 -9.063228 -44.021099
-915.495972 -15.854800 -1.966031
-892.302002 79.305199 -44.021095
-884.732971 68.960701 -1.966027
-833.280029 166.557999 -44.021091
-830.625000 153.776001 -1.966023
-746.914001 240.195007 -44.021088
-755.947021 213.783997 -2.724491
-949.492981 5.856122 -58.032799
-908.872986 102.069000 -58.032795
-839.078003 194.667007 -58.032791
-738.338013 275.740997 -58.032787
-972.838989 20.775501 -44.021099
-925.474976 124.848999 -44.021095
-844.906982 222.776001 -44.021088
-743.281982 311.286011 -44.021084
-983.458984 27.566999 -1.966029
-933.013000 135.194000 -1.966024
-847.562012 235.557999 -1.966020
-742.153015 327.432007 -1.966016
-972.838989 20.775497 40.089001
-925.474976 124.848999 40.089005
-844.906982 222.776001 40.089012
-740.414001 311.286011 40.089016
-949.492981 5.856118 54.100700
-908.872986 102.069000 54.100704
-839.078003 194.667007 54.100708
-738.338013 275.740997 54.100712
-926.116028 -9.063231 40.089001
-892.302002 79.305199 40.089005
-833.280029 166.557999 40.089008
-746.914001 240.195007 40.089012
-287.891998 -269.687958 -392.178009
-313.161011 -269.687958 -422.337006
3 0 1 2
3 2 3 0
3 3 2 4
3 4 5 3
3 5 4 6
3 6 7 5
3 7 6 8
3 8 9 7
3 1 10 11
3 11 2 1
3 2 11 12
3 12 4 2
3 4 12 13
3 13 6 4
3 6 13 14
3 14 8 6
3 10 15 16
3 16 11 10
3 11 16 17
3 17 12 11
3 12 17 18
3 18 13 12
3 13 18 19
3 19 14 13
3 15 20 21
3 21 16 15
3 16 21 22
3 22 17 16
3 17 22 23
3 23 18 17
3 18 23 24
3 24 19 18
3 20 25 26
3 26 21 20
3 21 26 27
3 27 22 21
3 22 27 28
3 28 23 22
3 23 28 29
3 29 24 23
3 30 31 32
3 32 33 34
3 35 32 36
3 36 37 38
3 39 36 40
3 40 41 42
3 43 40 44
3 44 45 46
3 31 47 48
3 48 32 31
3 32 48 49
3 49 36 32
3 36 49 50
3 50 40 36
3 40 50 51
3 51 44 40
3 47 52 53
3 53 48 47
3 48 53 54
3 54 49 48
3 49 54 55
3 55 50 49
3 50 55 56
3 56 51 50
3 52 57 58
3 58 53 52
3 53 58 59
3 59 54 53
3 54 59 60
3 60 55 54
3 55 60 61
3 61 56 55
3 57 62 63
3 63 58 57
3 58 63 64
3 64 59 58
3 59 64 65
3 65 60 59
3 60 65 66
3 66 61 60
3 62 67 68
3 68 63 62
3 63 68 69
3 69 64 63
3 64 69 70
3 70 65 64
3 65 70 71
3 71 66 65
3 67 72 73
3 73 68 67
3 68 73 74
3 74 69 68
3 69 74 75
3 75 70 69
3 70 75 76
3 76 71 70
3 72 77 78
3 78 73 72
3 73 78 79
3 79 74 73
3 74 79 80
3 80 75 74
3 75 80 81
3 81 76 75
3 77 82 83
3 83 78 77
3 78 83 84
3 84 79 78
3 79 84 85
3 85 80 79
3 80 85 86
3 86 81 80
3 82 87 88
3 88 83 82
3 83 88 89
3 89 84 83
3 84 89 90
3 90 85 84
3 85 90 91
3 91 86 85
3 87 0 3
3 3 88 87
3 88 3 5
3 5 89 88
3 89 5 7
3 7 90 89
3 90 7 9
3 9 91 90
3 9 8 92
3 92 93 9
3 93 92 94
3 94 95 93
3 8 14 96
3 96 92 8
3 92 96 97
3 97 94 92
3 94 97 98
3 98 99 94
3 99 98 100
3 100 101 99
3 14 19 102
3 102 96 14
3 96 102 103
3 103 97 96
3 97 103 104
3 104 98 97
3 98 104 105
3 105 100 98
3 19 24 106
3 106 102 19
3 102 106 107
3 107 103 102
3 103 107 108
3 108 104 103
3 104 108 109
3 109 105 104
3 24 29 110
3 110 106 24
3 106 110 111
3 111 107 106
3 107 111 112
3 112 108 107
3 108 112 113
3 113 109 108
3 114 44 115
3 115 116 117
3 118 115 119
3 119 120 121
3 122 119 123
3 123 124 125
3 126 123 127
3 127 128 129
3 44 51 130
3 130 115 44
3 115 130 131
3 131 119 115
3 119 131 132
3 132 123 119
3 123 132 133
3 133 127 123
3 130 134 135
3 135 131 130
3 131 135 136
3 136 132 131
3 132 136 137
3 137 133 132
3 134 138 139
3 139 135 134
3 135 139 140
3 140 136 135
3 136 140 141
3 141 137 136
3 61 66 142
3 142 138 61
3 138 142 143
3 143 139 138
3 139 143 144
3 144 140 139
3 140 144 145
3 145 141 140
3 66 71 146
3 146 142 66
3 142 146 147
3 147 143 142
3 143 147 148
3 148 144 143
3 144 148 149
3 149 145 144
3 71 76 150
3 150 146 71
3 146 150 151
3 151 147 146
3 147 151 152
3 152 148 147
3 148 152 153
3 153 149 148
3 76 81 154
3 154 150 76
3 150 154 155
3 155 151 150
3 151 155 156
3 156 152 151
3 152 156 157
3 157 153 152
3 81 86 158
3 158 154 81
3 154 158 159
3 159 155 154
3 155 159 160
3 160 156 155
3 156 160 161
3 161 157 156
3 86 91 162
3 162 158 86
3 158 162 163
3 163 159 158
3 159 163 164
3 164 160 159
3 160 164 165
3 165 161 160
3 91 9 93
3 93 162 91
3 162 93 95
3 95 163 162
3 166 167 168
3 168 169 166
3 169 168 170
3 170 171 169
3 171 170 172
3 172 173 171
3 101 100 174
3 174 167 101
3 167 174 175
3 175 168 167
3 168 175 176
3 176 170 168
3 170 176 177
3 177 172 170
3 100 105 178
3 178 174 100
3 174 178 179
3 179 175 174
3 175 179 180
3 180 176 175
3 176 180 181
3 181 177 176
3 105 109 182
3 182 178 105
3 178 182 183
3 183 179 178
3 179 183 184
3 184 180 179
3 180 184 185
3 185 181 180
3 109 113 186
3 186 182 109
3 182 186 187
3 187 183 182
3 183 187 188
3 188 184 183
3 184 188 189
3 189 185 184
3 190 127 191
3 191 192 193
3 194 191 195
3 195 196 197
3 198 195 199
3 199 200 201
3 202 199 203
3 203 204 205
3 127 133 206
3 206 191 127
3 191 206 207
3 207 195 191
3 195 207 208
3 208 199 195
3 199 208 209
3 209 203 199
3 206 210 211
3 211 207 206
3 207 211 212
3 212 208 207
3 208 212 213
3 213 209 208
3 210 214 215
3 215 211 210
3 211 215 216
3 216 212 211
3 212 216 217
3 217 213 212
3 141 145 218
3 218 214 141
3 214 218 219
3 219 215 214
3 215 219 220
3 220 216 215
3 216 220 221
3 221 217 216
3 145 149 222
3 222 218 145
3 218 222 223
3 223 219 218
3 219 223 224
3 224 220 219
3 220 224 225
3 225 221 220
3 149 153 226
3 226 222 149
3 222 226 227
3 227 223 222
3 223 227 228
3 228 224 223
3 224 228 229
3 229 225 224
3 153 157 230
3 230 226 153
3 226 230 231
3 231 227 226
3 227 231 232
3 232 228 227
3 228 232 233
3 233 229 228
3 157 161 234
3 234 230 157
3 230 234 235
3 235 231 230
3 231 235 236
3 236 232 231
3 232 236 237
3 237 233 232
3 161 165 238
3 238 234 161
3 234 238 239
3 239 235 234
3 235 239 240
3 240 236 235
3 236 240 241
3 241 237 236
3 238 166 169
3 169 239 238
3 239 169 171
3 171 240 239
3 240 171 173
3 173 241 240
3 173 172 242
3 242 243 173
3 243 242 244
3 244 245 243
3 245 244 246
3 246 247 245
3 172 177 248
3 248 242 172
3 242 248 249
3 249 244 242
3 244 249 250
3 250 246 244
3 177 181 251
3 251 248 177
3 248 251 252
3 252 249 248
3 249 252 253
3 253 250 249
3 181 185 254
3 254 251 181
3 251 254 255
3 255 252 251
3 252 255 256
3 256 253 252
3 185 189 257
3 257 254 185
3 254 257 258
3 258 255 254
3 259 260 261
3 261 262 263
3 264 203 265
3 265 266 267
3 268 265 269
3 269 270 271
3 272 269 273
3 273 261 274
3 203 209 275
3 275 265 203
3 265 275 276
3 276 269 265
3 269 276 277
3 277 273 269
3 209 213 278
3 278 275 209
3 275 278 279
3 279 276 275
3 276 279 280
3 280 277 276
3 213 217 281
3 281 278 213
3 278 281 282
3 282 279 278
3 279 282 283
3 283 280 279
3 217 221 284
3 284 281 217
3 281 284 285
3 285 282 281
3 282 285 286
3 286 283 282
3 221 225 287
3 287 284 221
3 284 287 288
3 288 285 284
3 285 288 289
3 289 286 285
3 225 229 290
3 290 287 225
3 287 290 291
3 291 288 287
3 288 291 292
3 292 289 288
3 229 233 293
3 293 290 229
3 290 293 294
3 294 291 290
3 291 294 295
3 295 292 291
3 233 237 296
3 296 293 233
3 293 296 297
3 297 294 293
3 294 297 298
3 298 295 294
3 237 241 299
3 299 296 237
3 296 299 300
3 300 297 296
3 297 300 301
3 301 298 297
3 241 173 243
3 243 299 241
3 299 243 245
3 245 300 299
3 300 245 247
3 247 301 300
3 302 303 304
3 304 305 302
3 305 304 306
3 306 307 305
3 307 306 308
3 308 309 307
3 303 310 311
3 311 304 303
3 304 311 312
3 312 306 304
3 306 312 313
3 313 308 306
3 310 314 315
3 315 311 310
3 311 315 316
3 316 312 311
3 312 316 317
3 317 313 312
3 314 318 319
3 319 315 314
3 315 319 320
3 320 316 315
3 316 320 321
3 321 317 316
3 318 322 323
3 323 319 318
3 319 323 324
3 324 320 319
3 320 324 325
3 325 321 320
3 322 326 327
3 327 323 322
3 323 327 328
3 328 324 323
3 324 328 329
3 329 325 324
3 326 330 331
3 331 327 326
3 327 331 332
3 332 328 327
3 328 332 333
3 333 329 328
3 330 334 335
3 335 331 330
3 331 335 336
3 336 332 331
3 332 336 337
3 337 333 332
3 334 338 339
3 339 335 334
3 335 339 340
3 340 336 335
3 336 340 341
3 341 337 336
3 338 342 343
3 343 339 338
3 339 343 344
3 344 340 339
3 340 344 345
3 345 341 340
3 342 346 347
3 347 343 342
3 343 347 348
3 348 344 343
3 344 348 349
3 349 345 344
3 346 350 351
3 351 347 346
3 347 351 352
3 352 348 347
3 348 352 353
3 353 349 348
3 350 354 355
3 355 351 350
3 351 355 356
3 356 352 351
3 352 356 357
3 357 353 352
3 354 358 359
3 359 355 354
3 355 359 360
3 360 356 355
3 356 360 361
3 361 357 356
3 358 362 363
3 363 359 358
3 359 363 364
3 364 360 359
3 360 364 365
3 365 361 360
3 362 302 305
3 305 363 362
3 363 305 307
3 307 364 363
3 364 307 309
3 309 365 364
3 366 367 368
3 368 369 370
3 369 368 371
3 371 372 369
3 372 371 373
3 373 374 372
3 374 373 375
3 375 376 374
3 377 378 379
3 379 368 380
3 368 379 381
3 381 371 368
3 371 381 382
3 382 373 371
3 373 382 383
3 383 375 373
3 313 317 384
3 385 379 386
3 379 387 388
3 388 381 379
3 381 388 389
3 389 382 381
3 382 389 390
3 390 383 382
3 317 321 391
3 391 384 317
3 384 391 392
3 393 388 394
3 388 395 396
3 396 389 388
3 389 396 397
3 397 390 389
3 321 325 398
3 398 391 321
3 391 398 399
3 399 392 391
3 392 399 400
3 400 401 392
3 402 400 403
3 404 397 396
3 325 329 405
3 405 398 325
3 398 405 406
3 406 399 398
3 399 406 407
3 407 400 399
3 400 407 408
3 408 403 400
3 329 333 409
3 409 405 329
3 405 409 410
3 410 406 405
3 406 410 411
3 411 407 406
3 407 411 412
3 412 408 407
3 333 337 413
3 413 409 333
3 409 413 414
3 414 410 409
3 410 414 415
3 415 411 410
3 411 415 416
3 416 412 411
3 337 341 417
3 417 413 337
3 413 417 418
3 418 414 413
3 414 418 419
3 419 415 414
3 415 419 420
3 420 416 415
3 341 345 421
3 421 417 341
3 417 421 422
3 422 418 417
3 418 422 423
3 423 419 418
3 419 423 424
3 424 420 419
3 345 349 425
3 425 421 345
3 421 425 426
3 426 422 421
3 422 426 427
3 427 423 422
3 423 427 428
3 428 424 423
3 349 353 429
3 429 425 349
3 425 429 430
3 430 426 425
3 426 430 431
3 431 427 426
3 427 431 432
3 432 428 427
3 353 357 433
3 433 429 353
3 429 433 434
3 434 430 429
3 430 434 435
3 435 431 430
3 431 435 436
3 436 432 431
3 357 361 437
3 437 433 357
3 433 437 438
3 438 434 433
3 434 438 439
3 439 435 434
3 435 439 440
3 440 436 435
3 361 365 441
3 441 437 361
3 437 441 442
3 442 438 437
3 438 442 443
3 443 439 438
3 439 443 444
3 444 440 439
3 365 445 369
3 369 441 365
3 441 369 372
3 372 442 441
3 442 372 374
3 374 443 442
3 443 374 376
3 376 444 443
3 292 295 446
3 295 298 446
3 298 301 446
3 301 247 446
3 247 246 447
3 246 250 448
3 449 250 253
3 253 256 450
3 446 451 261
3 446 261 273
3 446 273 277
3 446 277 280
3 446 280 283
3 446 283 286
3 446 286 289
3 446 289 292
3 326 452 330
3 330 452 334
3 334 452 338
3 338 452 342
3 342 452 346
3 346 452 350
3 350 452 354
3 354 452 358
3 358 452 362
3 362 452 302
3 302 452 303
3 303 452 310
3 452 314 310
3 314 452 318
3 318 452 322
3 322 452 326
3 20 15 390
3 20 390 397
3 453 454 455
3 455 456 453
3 456 455 457
3 457 458 456
3 458 457 459
3 459 460 458
3 460 459 461
3 461 462 460
3 454 463 464
3 464 455 454
3 455 464 465
3 465 457 455
3 457 465 466
3 466 459 457
3 459 466 467
3 467 461 459
3 463 468 469
3 469 464 463
3 464 469 470
3 470 465 464
3 465 470 471
3 471 466 465
3 466 471 472
3 472 467 466
3 468 473 474
3 474 469 468
3 469 474 475
3 475 470 469
3 470 475 476
3 476 471 470
3 471 476 477
3 477 472 471
3 473 478 479
3 479 474 473
3 474 479 480
3 480 475 474
3 475 480 481
3 481 476 475
3 476 481 482
3 482 477 476
3 478 483 484
3 484 479 478
3 479 484 485
3 485 480 479
3 480 485 486
3 486 481 480
3 481 486 487
3 487 482 481
3 483 488 489
3 489 484 483
3 484 489 490
3 490 485 484
3 485 490 491
3 491 486 485
3 486 491 492
3 492 487 486
3 488 453 456
3 456 489 488
3 489 456 458
3 458 490 489
3 490 458 460
3 460 491 490
3 491 460 462
3 462 492 491
3 462 461 493
3 493 494 462
3 494 493 495
3 495 496 494
3 496 495 497
3 497 498 496
3 498 497 499
3 499 500 498
3 461 467 501
3 501 493 461
3 493 501 502
3 502 495 493
3 495 502 503
3 503 497 495
3 497 503 504
3 504 499 497
3 467 472 505
3 505 501 467
3 501 505 506
3 506 502 501
3 502 506 507
3 507 503 502
3 503 507 508
3 508 504 503
3 472 477 509
3 509 505 472
3 505 509 510
3 510 506 505
3 506 510 511
3 511 507 506
3 507 511 512
3 512 508 507
3 477 482 513
3 513 509 477
3 509 513 514
3 514 510 509
3 510 514 515
3 515 511 510
3 511 515 516
3 516 512 511
3 482 487 517
3 517 513 482
3 513 517 518
3 518 514 513
3 514 518 519
3 519 515 514
3 515 519 520
3 520 516 515
3 487 492 521
3 521 517 487
3 517 521 522
3 522 518 517
3 518 522 523
3 523 519 518
3 519 523 524
3 524 520 519
3 492 462 494
3 494 521 492
3 521 494 496
3 496 522 521
3 522 496 498
3 498 523 522
3 523 498 500
3 500 524 523
3 163 488 483
3 483 164 163
3 164 483 165
3 165 483 478
3 165 478 238
3 101 468 463
3 99 101 463
3 99 463 454
3 94 99 454
3 94 454 453
3 94 453 95
3 95 453 163
3 163 453 488
3 238 478 166
3 478 473 166
3 468 166 473
3 468 167 166
3 468 101 167
3 525 526 527
3 527 528 525
3 528 527 529
3 529 530 528
3 530 529 531
3 531 532 530
3 532 531 533
3 533 534 532
3 526 535 536
3 536 527 526
3 527 536 537
3 537 529 527
3 529 537 538
3 538 531 529
3 531 538 539
3 539 533 531
3 535 540 541
3 541 536 535
3 536 541 542
3 542 537 536
3 537 542 543
3 543 538 537
3 538 543 544
3 544 539 538
3 540 545 546
3 546 541 540
3 541 546 547
3 547 542 541
3 542 547 548
3 548 543 542
3 543 548 549
3 549 544 543
3 545 550 551
3 551 546 545
3 546 551 552
3 552 547 546
3 547 552 553
3 553 548 547
3 548 553 554
3 554 549 548
3 550 555 556
3 556 551 550
3 551 556 557
3 557 552 551
3 552 557 558
3 558 553 552
3 553 558 559
3 559 554 553
3 555 560 561
3 561 556 555
3 556 561 562
3 562 557 556
3 557 562 563
3 563 558 557
3 558 563 564
3 564 559 558
3 560 525 528
3 528 561 560
3 561 528 530
3 530 562 561
3 562 530 532
3 532 563 562
3 563 532 534
3 534 564 563
3 534 533 565
3 565 566 534
3 566 565 567
3 567 568 566
3 568 567 569
3 569 570 568
3 570 569 571
3 571 572 570
3 533 539 573
3 573 565 533
3 565 573 574
3 574 567 565
3 567 574 575
3 575 569 567
3 569 575 576
3 576 571 569
3 539 544 577
3 577 573 539
3 573 577 578
3 578 574 573
3 574 578 579
3 579 575 574
3 575 579 580
3 580 576 575
3 544 549 581
3 581 577 544
3 577 581 582
3 582 578 577
3 578 582 583
3 583 579 578
3 579 583 584
3 584 580 579
3 549 554 585
3 585 581 549
3 581 585 586
3 586 582 581
3 582 586 587
3 587 583 582
3 583 587 588
3 588 584 583
3 554 559 589
3 589 585 554
3 585 589 590
3 590 586 585
3 586 590 591
3 591 587 586
3 587 591 592
3 592 588 587
3 559 564 593
3 593 589 559
3 589 593 594
3 594 590 589
3 590 594 595
3 595 591 590
3 591 595 596
3 596 592 591
3 564 534 566
3 566 593 564
3 593 566 568
3 568 594 593
3 594 568 570
3 570 595 594
3 595 570 572
3 572 596 595
3 51 535 130
3 141 214 592
3 133 576 206
3 525 138 134
3 525 134 526
3 526 134 130
3 130 535 526
3 51 540 535
3 56 545 540
3 56 540 51
3 61 550 545
3 61 545 56
3 61 555 550
3 61 138 555
3 555 138 560
3 560 138 525
3 592 214 588
3 588 210 584
3 210 580 584
3 588 214 210
3 576 580 206
3 206 580 210
3 141 592 596
3 137 596 572
3 137 141 596
3 137 572 571
3 137 571 133
3 133 571 576
3 72 428 432
3 520 500 504
3 52 47 31
3 25 20 397
3 383 390 15
3 25 397 597
3 383 15 10
3 31 598 403
3 375 383 10
3 31 403 408
3 375 10 1
3 31 408 412
3 376 375 1
3 52 31 412
3 376 1 0
3 52 412 416
3 444 376 0
3 57 52 416
3 444 0 87
3 57 416 420
3 440 444 87
3 62 57 420
3 440 87 82
3 62 420 424
3 436 440 82
3 67 62 424
3 436 82 77
3 67 424 428
3 432 436 77
3 72 67 428
3 432 77 72
3 499 504 500
3 508 512 504
3 516 520 512
3 524 500 520
3 504 512 520
